<mxfile host="app.diagrams.net" modified="2023-07-11T07:46:36.300Z" agent="Mozilla/5.0 (Windows NT 10.0; Win64; x64) AppleWebKit/537.36 (KHTML, like Gecko) Chrome/114.0.0.0 Safari/537.36" etag="ZB_bsF8xodaArmIkKQLq" version="21.5.0" type="github">
  <diagram name="Page-1" id="2YBvvXClWsGukQMizWep">
    <mxGraphModel dx="1050" dy="581" grid="1" gridSize="10" guides="1" tooltips="1" connect="1" arrows="1" fold="1" page="1" pageScale="1" pageWidth="850" pageHeight="1100" math="0" shadow="0">
      <root>
        <mxCell id="0" />
        <mxCell id="1" parent="0" />
        <mxCell id="5qoky1nEMj8aCGtvI3eX-6" style="edgeStyle=orthogonalEdgeStyle;rounded=0;orthogonalLoop=1;jettySize=auto;html=1;exitX=1;exitY=0.5;exitDx=0;exitDy=0;" edge="1" parent="1" source="5qoky1nEMj8aCGtvI3eX-1" target="5qoky1nEMj8aCGtvI3eX-2">
          <mxGeometry relative="1" as="geometry" />
        </mxCell>
        <mxCell id="5qoky1nEMj8aCGtvI3eX-1" value="&lt;font style=&quot;font-size: 16px;&quot;&gt;GetRootNode&lt;/font&gt;" style="rounded=1;whiteSpace=wrap;html=1;" vertex="1" parent="1">
          <mxGeometry x="40" y="50" width="110" height="40" as="geometry" />
        </mxCell>
        <mxCell id="5qoky1nEMj8aCGtvI3eX-7" style="edgeStyle=orthogonalEdgeStyle;rounded=0;orthogonalLoop=1;jettySize=auto;html=1;exitX=1;exitY=0.25;exitDx=0;exitDy=0;entryX=0;entryY=0.5;entryDx=0;entryDy=0;" edge="1" parent="1" source="5qoky1nEMj8aCGtvI3eX-2" target="5qoky1nEMj8aCGtvI3eX-3">
          <mxGeometry relative="1" as="geometry">
            <Array as="points">
              <mxPoint x="400" y="70" />
            </Array>
          </mxGeometry>
        </mxCell>
        <mxCell id="5qoky1nEMj8aCGtvI3eX-2" value="&lt;font style=&quot;font-size: 16px;&quot;&gt;GetTreeViewNodeSaoList&lt;/font&gt;" style="rounded=1;whiteSpace=wrap;html=1;" vertex="1" parent="1">
          <mxGeometry x="200" y="50" width="200" height="40" as="geometry" />
        </mxCell>
        <mxCell id="5qoky1nEMj8aCGtvI3eX-5" style="edgeStyle=orthogonalEdgeStyle;rounded=0;orthogonalLoop=1;jettySize=auto;html=1;" edge="1" parent="1" source="5qoky1nEMj8aCGtvI3eX-3" target="5qoky1nEMj8aCGtvI3eX-4">
          <mxGeometry relative="1" as="geometry" />
        </mxCell>
        <mxCell id="5qoky1nEMj8aCGtvI3eX-3" value="&lt;font style=&quot;font-size: 16px;&quot;&gt;GetTreeViewNodeSaoList&lt;/font&gt;" style="rounded=1;whiteSpace=wrap;html=1;" vertex="1" parent="1">
          <mxGeometry x="450" y="50" width="200" height="40" as="geometry" />
        </mxCell>
        <mxCell id="5qoky1nEMj8aCGtvI3eX-9" style="edgeStyle=orthogonalEdgeStyle;rounded=0;orthogonalLoop=1;jettySize=auto;html=1;exitX=0.5;exitY=1;exitDx=0;exitDy=0;entryX=0.5;entryY=0;entryDx=0;entryDy=0;" edge="1" parent="1" source="5qoky1nEMj8aCGtvI3eX-4" target="5qoky1nEMj8aCGtvI3eX-8">
          <mxGeometry relative="1" as="geometry" />
        </mxCell>
        <mxCell id="5qoky1nEMj8aCGtvI3eX-4" value="LocalTreeViewCacheHelper.&lt;br style=&quot;border-color: var(--border-color);&quot;&gt;&lt;font style=&quot;border-color: var(--border-color); font-size: 16px;&quot;&gt;GetTreeViewDefinition&lt;/font&gt;" style="rounded=1;whiteSpace=wrap;html=1;" vertex="1" parent="1">
          <mxGeometry x="680" y="50" width="230" height="40" as="geometry" />
        </mxCell>
        <mxCell id="5qoky1nEMj8aCGtvI3eX-14" style="edgeStyle=orthogonalEdgeStyle;rounded=0;orthogonalLoop=1;jettySize=auto;html=1;exitX=0;exitY=0.5;exitDx=0;exitDy=0;entryX=1;entryY=0.5;entryDx=0;entryDy=0;" edge="1" parent="1" source="5qoky1nEMj8aCGtvI3eX-8" target="5qoky1nEMj8aCGtvI3eX-12">
          <mxGeometry relative="1" as="geometry" />
        </mxCell>
        <mxCell id="5qoky1nEMj8aCGtvI3eX-8" value="&lt;font style=&quot;&quot;&gt;&lt;font style=&quot;font-size: 16px;&quot;&gt;PutFilteredTreeToCache&lt;/font&gt;&lt;br&gt;&lt;/font&gt;" style="rounded=1;whiteSpace=wrap;html=1;" vertex="1" parent="1">
          <mxGeometry x="680" y="130" width="230" height="40" as="geometry" />
        </mxCell>
        <mxCell id="5qoky1nEMj8aCGtvI3eX-15" value="" style="edgeStyle=orthogonalEdgeStyle;rounded=0;orthogonalLoop=1;jettySize=auto;html=1;" edge="1" parent="1" source="5qoky1nEMj8aCGtvI3eX-12" target="5qoky1nEMj8aCGtvI3eX-13">
          <mxGeometry relative="1" as="geometry" />
        </mxCell>
        <mxCell id="5qoky1nEMj8aCGtvI3eX-12" value="&lt;font style=&quot;&quot;&gt;&lt;font style=&quot;font-size: 16px;&quot;&gt;tvBO=GetTreeViewDefinition&lt;/font&gt;&lt;br&gt;&lt;/font&gt;" style="rounded=1;whiteSpace=wrap;html=1;" vertex="1" parent="1">
          <mxGeometry x="430" y="130" width="220" height="40" as="geometry" />
        </mxCell>
        <mxCell id="5qoky1nEMj8aCGtvI3eX-13" value="&lt;font style=&quot;&quot;&gt;&lt;font style=&quot;font-size: 16px;&quot;&gt;Filter(tvBO)&lt;/font&gt;&lt;br&gt;&lt;/font&gt;" style="rounded=1;whiteSpace=wrap;html=1;" vertex="1" parent="1">
          <mxGeometry x="250" y="130" width="130" height="40" as="geometry" />
        </mxCell>
        <mxCell id="5qoky1nEMj8aCGtvI3eX-18" value="" style="edgeStyle=orthogonalEdgeStyle;rounded=0;orthogonalLoop=1;jettySize=auto;html=1;" edge="1" parent="1" source="5qoky1nEMj8aCGtvI3eX-16" target="5qoky1nEMj8aCGtvI3eX-17">
          <mxGeometry relative="1" as="geometry" />
        </mxCell>
        <mxCell id="5qoky1nEMj8aCGtvI3eX-16" value="&lt;font style=&quot;font-size: 14px;&quot;&gt;PresentationChassisFilter&lt;br&gt;GetPresentationsOnChassisSeries&lt;/font&gt;" style="rounded=1;whiteSpace=wrap;html=1;" vertex="1" parent="1">
          <mxGeometry x="60" y="380" width="240" height="50" as="geometry" />
        </mxCell>
        <mxCell id="5qoky1nEMj8aCGtvI3eX-17" value="&lt;font style=&quot;font-size: 14px;&quot;&gt;Filter&lt;/font&gt;" style="rounded=1;whiteSpace=wrap;html=1;" vertex="1" parent="1">
          <mxGeometry x="260" y="290" width="240" height="50" as="geometry" />
        </mxCell>
        <mxCell id="5qoky1nEMj8aCGtvI3eX-20" value="" style="edgeStyle=orthogonalEdgeStyle;rounded=0;orthogonalLoop=1;jettySize=auto;html=1;" edge="1" parent="1" source="5qoky1nEMj8aCGtvI3eX-19" target="5qoky1nEMj8aCGtvI3eX-16">
          <mxGeometry relative="1" as="geometry" />
        </mxCell>
        <mxCell id="5qoky1nEMj8aCGtvI3eX-19" value="&lt;font style=&quot;font-size: 14px;&quot;&gt;PresentationDA.GetPresentationChassis()&lt;/font&gt;" style="rounded=1;whiteSpace=wrap;html=1;" vertex="1" parent="1">
          <mxGeometry x="40" y="470" width="280" height="50" as="geometry" />
        </mxCell>
        <mxCell id="5qoky1nEMj8aCGtvI3eX-22" value="" style="edgeStyle=orthogonalEdgeStyle;rounded=0;orthogonalLoop=1;jettySize=auto;html=1;" edge="1" parent="1" source="5qoky1nEMj8aCGtvI3eX-21" target="5qoky1nEMj8aCGtvI3eX-19">
          <mxGeometry relative="1" as="geometry" />
        </mxCell>
        <mxCell id="5qoky1nEMj8aCGtvI3eX-21" value="&lt;font style=&quot;font-size: 14px;&quot;&gt;&amp;nbsp;PROCEDURE [dbo].&lt;/font&gt;&lt;font style=&quot;font-size: 16px;&quot;&gt;[GetPresentationChassis]&lt;/font&gt;" style="rounded=1;whiteSpace=wrap;html=1;" vertex="1" parent="1">
          <mxGeometry x="40" y="550" width="280" height="50" as="geometry" />
        </mxCell>
        <mxCell id="5qoky1nEMj8aCGtvI3eX-24" style="edgeStyle=orthogonalEdgeStyle;rounded=0;orthogonalLoop=1;jettySize=auto;html=1;exitX=0.5;exitY=0;exitDx=0;exitDy=0;entryX=0.5;entryY=1;entryDx=0;entryDy=0;" edge="1" parent="1" source="5qoky1nEMj8aCGtvI3eX-23" target="5qoky1nEMj8aCGtvI3eX-17">
          <mxGeometry relative="1" as="geometry" />
        </mxCell>
        <mxCell id="5qoky1nEMj8aCGtvI3eX-23" value="&lt;font style=&quot;font-size: 14px;&quot;&gt;PresentationChassisFilter&lt;br&gt;GetPresentationsOnChassisSeries&lt;/font&gt;" style="rounded=1;whiteSpace=wrap;html=1;" vertex="1" parent="1">
          <mxGeometry x="490" y="380" width="240" height="50" as="geometry" />
        </mxCell>
        <mxCell id="5qoky1nEMj8aCGtvI3eX-25" value="&lt;font style=&quot;font-size: 14px;&quot;&gt;GetLiftedAMConfiguration&lt;/font&gt;" style="rounded=1;whiteSpace=wrap;html=1;" vertex="1" parent="1">
          <mxGeometry x="490" y="470" width="240" height="50" as="geometry" />
        </mxCell>
        <mxCell id="5qoky1nEMj8aCGtvI3eX-26" value="&lt;font style=&quot;font-size: 14px;&quot;&gt;GetLiftedAMConfiguration&lt;/font&gt;" style="rounded=1;whiteSpace=wrap;html=1;" vertex="1" parent="1">
          <mxGeometry x="490" y="680" width="240" height="50" as="geometry" />
        </mxCell>
        <mxCell id="5qoky1nEMj8aCGtvI3eX-27" value="&lt;font style=&quot;font-size: 14px;&quot;&gt;GetLiftedAMConfiguration&lt;/font&gt;" style="rounded=1;whiteSpace=wrap;html=1;" vertex="1" parent="1">
          <mxGeometry x="490" y="780" width="240" height="50" as="geometry" />
        </mxCell>
        <mxCell id="5qoky1nEMj8aCGtvI3eX-28" value="&lt;font style=&quot;font-size: 14px;&quot;&gt;webconfig.TreeViewConfiguration EnablePresentationParameterFilter=&quot;true&quot; ParameterFilterMaxUSPVehicles=&quot;700&quot;&lt;/font&gt;" style="rounded=1;whiteSpace=wrap;html=1;" vertex="1" parent="1">
          <mxGeometry x="455" y="560" width="310" height="70" as="geometry" />
        </mxCell>
      </root>
    </mxGraphModel>
  </diagram>
</mxfile>
